<svg width="213" height="61" viewBox="0 0 213 61" fill="none" xmlns="http://www.w3.org/2000/svg">
<g clip-path="url(#clip0_2386_36)">
<path fill-rule="evenodd" clip-rule="evenodd" d="M30.2083 60.4167C46.8919 60.4167 60.4167 46.8919 60.4167 30.2083C60.4167 13.5247 46.8919 0 30.2083 0C13.5247 0 0 13.5247 0 30.2083C0 46.8919 13.5247 60.4167 30.2083 60.4167ZM33.9837 52.5514C44.6994 50.754 52.8646 41.4347 52.8646 30.2083C52.8646 18.9819 44.6994 9.66265 33.9837 7.86523V52.5514ZM26.4316 52.5512V46.5711H14.5378C17.746 49.6444 21.8563 51.7835 26.4316 52.5512ZM26.4316 39.019V33.9842H7.86531C8.15971 35.7391 8.65586 37.4256 9.32909 39.019H26.4316ZM26.4316 26.4321V21.3973H9.32922C8.65597 22.9907 8.1598 24.6772 7.86537 26.4321H26.4316ZM26.4316 13.8452V7.86545C21.8565 8.63316 17.7463 10.7721 14.5381 13.8452H26.4316Z" fill="#6366F1"/>
<path d="M83.457 43.2979V43.5479H83.707H90.4708H90.7208V43.2979V29.133H97.393C100.449 29.133 102.976 28.6147 104.961 27.5612L104.964 27.5596C106.938 26.4759 108.402 25.0604 109.344 23.31L109.345 23.3081C110.281 21.5328 110.748 19.5954 110.748 17.5C110.748 15.2989 110.263 13.3066 109.29 11.5289C108.313 9.74305 106.829 8.34409 104.852 7.3307C102.869 6.31441 100.378 5.81383 97.393 5.81383H83.707H83.457V6.06383V43.2979ZM101.863 13.3646L101.869 13.3707C102.866 14.3408 103.378 15.7056 103.378 17.5C103.378 19.257 102.867 20.6247 101.866 21.6323C100.913 22.5911 99.3039 23.1011 96.9703 23.1011H90.7208V11.8457H96.9703C99.302 11.8457 100.91 12.3726 101.863 13.3646ZM118.166 54.8971L118.006 55.25H118.393H125.58H125.743L125.809 55.1001L142.454 17.015L142.607 16.6649H142.225H135.038H134.871L134.807 16.8195L127.381 34.8116L120.264 16.8229L120.201 16.6649H120.031H112.686H112.312L112.456 17.0105L122.654 41.6382L122.718 41.7926H122.885H124.083L118.166 54.8971ZM144.811 43.2979V43.5479H145.061H151.825H152.075V43.2979V5V4.75H151.825H145.061H144.811V5V43.2979ZM162.204 42.3969L162.205 42.3978C164.289 43.5913 166.622 44.1862 169.199 44.1862C171.741 44.1862 174.056 43.591 176.14 42.3978C178.222 41.2052 179.857 39.5593 181.041 37.4638C182.263 35.3292 182.871 32.8742 182.871 30.1064C182.871 27.3393 182.264 24.9017 181.041 22.8019C179.857 20.6719 178.223 19.0083 176.141 17.8154C174.092 16.6216 171.793 16.0266 169.252 16.0266C166.675 16.0266 164.342 16.6214 162.258 17.815L162.256 17.8159C160.209 19.009 158.576 20.6724 157.357 22.8011C156.134 24.9011 155.527 27.3389 155.527 30.1064C155.527 32.8733 156.116 35.3276 157.302 37.4619L157.305 37.4662C158.524 39.5594 160.157 41.2043 162.204 42.3969ZM173.616 24.376L173.619 24.3783C174.859 25.6269 175.501 27.5204 175.501 30.1064C175.501 32.691 174.86 34.6039 173.618 35.8889C172.359 37.1555 170.89 37.7819 169.199 37.7819C167.509 37.7819 166.04 37.1559 164.781 35.89C163.574 34.6052 162.949 32.6918 162.949 30.1064C162.949 27.5188 163.575 25.6243 164.781 24.3759C166.04 23.0747 167.526 22.4309 169.252 22.4309C170.904 22.4309 172.356 23.0725 173.616 24.376ZM185.776 43.2979V43.5479H186.026H192.79H193.04V43.2979V29.6809C193.04 27.3105 193.628 25.498 194.772 24.2099C195.955 22.9175 197.455 22.2713 199.289 22.2713C201.173 22.2713 202.515 22.8545 203.37 23.981C204.24 25.1263 204.693 26.8017 204.693 29.0426V43.2979V43.5479H204.943H211.707H211.957V43.2979V28.4043C211.957 24.3991 211.052 21.3164 209.2 19.1972C207.347 17.0759 204.754 16.0266 201.456 16.0266C199.339 16.0266 197.48 16.4964 195.885 17.4447L195.883 17.446C194.553 18.2557 193.486 19.3071 192.684 20.598L192.245 16.8855L192.219 16.6649H191.997H186.026H185.776V16.9149V43.2979Z" fill="#1D1D1D" stroke="white" stroke-width="0.5"/>
</g>
<defs>
<clipPath id="clip0_2386_36">
<rect width="213" height="61" fill="white"/>
</clipPath>
</defs>
</svg>
